<svg width="24" height="23" viewBox="0 0 24 23" fill="none" xmlns="http://www.w3.org/2000/svg">
<g clip-path="url(#clip0_107_199)">
<path d="M22.0052 11.4153C19.8756 7.67995 16.1409 5.41956 12.0081 5.41956C7.87528 5.41956 4.13426 7.67995 2.02362 11.4153L1.84668 11.6971L2.01098 11.9849C4.14058 15.7203 7.87528 17.9807 12.0081 17.9807C16.1409 17.9807 19.8819 15.7502 22.0052 11.9849L22.1695 11.6971L22.0052 11.4153ZM12.0081 16.7515C8.45034 16.7515 5.18326 14.8689 3.28748 11.6971C5.18326 8.52535 8.45034 6.64269 12.0081 6.64269C15.5659 6.64269 18.795 8.53135 20.7224 11.6971C18.795 14.8689 15.5595 16.7515 12.0081 16.7515Z" fill="#272643"/>
<path d="M12.1911 7.60192C11.3343 7.60785 10.4985 7.85456 9.7894 8.3109C9.08027 8.76724 8.52958 9.41273 8.20688 10.1658C7.88419 10.919 7.80395 11.7459 7.97631 12.5423C8.14867 13.3386 8.5659 14.0687 9.1753 14.6402C9.78469 15.2117 10.5589 15.599 11.4002 15.7533C12.2415 15.9075 13.1121 15.8218 13.902 15.5068C14.692 15.1919 15.3658 14.6619 15.8385 13.9838C16.3112 13.3058 16.5614 12.51 16.5577 11.697C16.5552 11.1559 16.4402 10.6205 16.2193 10.1216C15.9983 9.62267 15.6758 9.17004 15.2702 8.78962C14.8645 8.40919 14.3837 8.10846 13.8554 7.90465C13.327 7.70084 12.7614 7.59797 12.1911 7.60192ZM12.1911 14.6289C11.5859 14.623 10.996 14.4476 10.4955 14.1246C9.99504 13.8016 9.60632 13.3455 9.37815 12.8136C9.14998 12.2817 9.09255 11.6977 9.21307 11.1349C9.33359 10.5722 9.62668 10.0557 10.0555 9.65049C10.4844 9.24525 11.0299 8.96928 11.6235 8.85723C12.2171 8.74518 12.8324 8.80205 13.3921 9.0207C13.9518 9.23936 14.4309 9.61004 14.7692 10.0862C15.1076 10.5624 15.2901 11.1228 15.2939 11.697C15.2955 12.0835 15.2164 12.4665 15.0609 12.8237C14.9054 13.1809 14.6767 13.5053 14.3881 13.778C14.0994 14.0507 13.7566 14.2664 13.3795 14.4125C13.0024 14.5585 12.5984 14.6321 12.1911 14.6289Z" fill="#272643"/>
</g>
<defs>
<clipPath id="clip0_107_199">
<rect width="22.7494" height="21.5847" fill="white" transform="translate(0.759766 0.904663)"/>
</clipPath>
</defs>
</svg>

