<svg width="269" height="135" viewBox="0 0 269 135" fill="none" xmlns="http://www.w3.org/2000/svg">
<path d="M61.8079 89.5696C57.6054 84.6379 50.9403 74.0607 47.7435 68.9133C44.5466 63.7658 32.0595 75.2956 32.0595 75.2956C22.5162 82.3261 13.0437 91.7637 8.36323 96.6915C6.85712 98.4297 4.22335 98.6177 2.48569 97.1116C0.748024 95.6055 0.560001 92.9717 2.0661 91.2341C7.22982 84.7049 18.5543 71.1911 29.4769 62.7712C35.9262 57.7998 42.4893 54.8617 47.7435 54.6555C50.582 54.5546 53.4047 55.6851 56.1462 57.9395C60.2669 61.3278 64.4642 68.7348 69.1351 75.6176C70.7891 78.0547 72.4846 80.4359 74.4199 82.3237C75.8982 83.7662 77.4206 85.0173 79.3061 85.3326C83.6589 86.0756 87.2304 83.9413 90.6258 81.0282C96.6799 75.8343 102.119 68.299 107.903 62.4219C113.382 56.8549 119.235 52.6844 125.843 51.7165C132.08 50.6841 136.527 52.9078 140.206 56.9252C143.527 60.5517 146.042 66.2704 149.013 71.9896C151.703 77.1691 154.755 82.6032 161.289 83.9461C166.473 85.091 170.752 83.4849 174.668 80.8636C181.619 76.2113 187.571 68.7009 193.97 62.7023C199.746 57.2869 205.89 53.0116 212.798 51.5108C216.099 50.7932 220.087 51.9093 224.14 55.6124C228.158 59.2815 233.141 66.5087 240.816 70.0161C244.847 71.858 249.721 72.4537 255.725 70.4921C259.146 69.3515 262.85 71.2035 263.991 74.6248C265.132 78.0466 263.28 81.7506 259.858 82.8912C250.031 86.2316 242.019 85.1006 235.358 82.1558C227.403 78.6389 221.492 72.1714 216.895 67.5325C211.698 62.2872 204.5 71.6404 200.386 75.851C194.599 81.7755 188.879 88.2161 182.447 92.5057C175.394 97.2087 167.555 99.5813 158.249 97.4432C153.487 96.2873 149.67 94.1114 146.559 91.214C140.13 85.2254 136.979 75.9568 133.359 68.9133C131.893 66.0609 130.827 63.2199 127.68 63.6577C121.585 64.6591 117.028 70.4462 112.241 76.2893C106.305 83.5356 100.392 91.2432 93.5203 95.4739C88.6173 98.4924 83.2398 99.8865 77.1948 99.0579C71.3168 98.2254 66.1487 94.6639 61.8079 89.5696Z" fill="#2C698D"/>
</svg>

